<?xml version="1.0" standalone="no"?>
<!DOCTYPE svg PUBLIC "-//W3C//DTD SVG 1.1//EN" "http://www.w3.org/Graphics/SVG/1.1/DTD/svg11.dtd" >
<svg xmlns="http://www.w3.org/2000/svg" xmlns:xlink="http://www.w3.org/1999/xlink" version="1.1">
<metadata>
Created by FontForge 20161003 at Mon Dec 19 13:02:13 2016
 By www-data
Helvetica is a trademark of Allied Corporation.
</metadata>
<defs>
<font id="HELVBL" horiz-adv-x="667" >
  <font-face 
    font-family="HELVBL"
    font-weight="400"
    font-stretch="normal"
    units-per-em="1000"
    panose-1="0 0 4 0 0 0 0 0 0 0"
    ascent="800"
    descent="-200"
    x-height="524"
    cap-height="720"
    bbox="-167 -232 1007 1013"
    underline-thickness="58"
    underline-position="-177"
    unicode-range="U+0020-F002"
  />
<missing-glyph horiz-adv-x="500" 
d="M63 0v811h375v-811h-375zM125 63h250v686h-250v-686z" />
    <glyph glyph-name=".notdef" horiz-adv-x="500" 
d="M63 0v811h375v-811h-375zM125 63h250v686h-250v-686z" />
    <glyph glyph-name=".null" horiz-adv-x="0" 
 />
    <glyph glyph-name="nonmarkingreturn" horiz-adv-x="333" 
 />
    <glyph glyph-name="space" unicode=" " horiz-adv-x="333" 
 />
    <glyph glyph-name="exclam" unicode="!" horiz-adv-x="333" 
d="M108 264l-48 278v178h213v-178l-52 -278h-113zM267 0h-206v194h206v-194z" />
    <glyph glyph-name="quotedbl" unicode="&#x22;" horiz-adv-x="500" 
d="M401 449h-119v271h119v-271zM218 449h-119v271h119v-271z" />
    <glyph glyph-name="numbersign" unicode="#" horiz-adv-x="660" 
d="M550 315v-93h-102l-32 -222h-89l31 222h-85l-32 -222h-88l31 222h-100v93h114l13 88h-99v93h111l30 209h87l-29 -209h86l29 209h90l-30 -209h90v-93h-103l-12 -88h89zM384 403h-86l-12 -88h85z" />
    <glyph glyph-name="dollar" unicode="$" 
d="M286 455v130q-24 2 -48 -15q-27 -20 -27 -46q0 -31 26 -48q5 -3 49 -21zM369 260v-146q33 0 60 18t27 48q0 62 -87 80zM286 715v62h83v-62q112 -6 178 -52q80 -56 79 -163h-173q-2 32 -25 56t-59 23v-139q129 -39 180 -73q87 -59 87 -158q0 -215 -267 -224v-97h-83v97
q-114 4 -185 63q-77 64 -78 176h181q0 -87 82 -104v157q-128 39 -168 66q-81 53 -81 152q0 106 77 161q58 42 172 59z" />
    <glyph glyph-name="percent" unicode="%" horiz-adv-x="1000" 
d="M761 747l-424 -778h-101l424 778h101zM553 195q0 90 65.5 155.5t155.5 65.5t154.5 -65.5t64.5 -155.5q0 -91 -64 -154.5t-155 -63.5q-90 0 -155.5 64t-65.5 154zM688 196q0 -34 26 -59t60 -25t59 25t25 59t-25 59.5t-59 25.5q-35 0 -60.5 -25t-25.5 -60zM227 302
q-91 0 -156 64.5t-65 155.5q0 90 65.5 154.5t155.5 64.5t155 -64.5t65 -154.5q0 -91 -64.5 -155.5t-155.5 -64.5zM227 606q-34 0 -60 -25t-26 -59t25.5 -59.5t60.5 -25.5q34 0 59.5 25.5t25.5 59.5t-25.5 59t-59.5 25z" />
    <glyph glyph-name="ampersand" unicode="&#x26;" horiz-adv-x="889" 
d="M384 595q-70 0 -70 -54q0 -43 61 -84q75 35 75 80q0 12 -4 26q-15 32 -62 32zM594 0l-57 61q-38 -33 -102 -55q-69 -25 -136 -25q-108 0 -176 48q-78 54 -78 152q0 148 151 224q-62 65 -62 135q0 93 80 141q66 39 165 39q102 0 170 -51q70 -54 70 -139q0 -118 -117 -182
l62 -64q28 24 47 60h190q-55 -105 -121 -175l164 -169h-250zM416 188l-93 98q-78 -40 -78 -86q0 -66 70 -66q36 0 80 26q28 16 28 18q0 3 -7 10z" />
    <glyph glyph-name="quotesingle" unicode="'" horiz-adv-x="278" 
d="M198 449h-119v271h119v-271z" />
    <glyph glyph-name="parenleft" unicode="(" horiz-adv-x="389" 
d="M331 -178h-176q-108 208 -108 455q0 120 37 246q19 66 72 197h178q-94 -247 -94 -446q0 -218 91 -452z" />
    <glyph glyph-name="parenright" unicode=")" horiz-adv-x="389" 
d="M58 720h176q108 -208 108 -455q0 -120 -36 -246q-20 -66 -73 -197h-178q94 247 94 446q0 218 -91 452z" />
    <glyph glyph-name="asterisk" unicode="*" horiz-adv-x="556" 
d="M91 627l133 -46v139h108v-139l132 51l38 -103l-139 -47l95 -117l-91 -70l-87 124l-87 -124l-92 68l91 117l-138 37z" />
    <glyph glyph-name="plus" unicode="+" horiz-adv-x="660" 
d="M272 314v191h116v-191h194v-116h-194v-198h-116v198h-194v116h194z" />
    <glyph glyph-name="comma" unicode="," horiz-adv-x="333" 
d="M58 -176v87q91 12 97 89h-97v206h212v-174q0 -197 -212 -208z" />
    <glyph glyph-name="hyphen" unicode="-" horiz-adv-x="333" 
d="M300 165h-268v182h268v-182z" />
    <glyph glyph-name="hyphen" unicode="&#x2010;" horiz-adv-x="333" 
d="M300 165h-268v182h268v-182z" />
    <glyph glyph-name="period" unicode="." horiz-adv-x="333" 
d="M272 0h-212v206h212v-206z" />
    <glyph glyph-name="slash" unicode="/" horiz-adv-x="278" 
d="M184 720h126l-216 -810h-126z" />
    <glyph glyph-name="zero" unicode="0" 
d="M334 141q97 0 97 208q0 93 -11 133q-21 77 -88 77q-96 0 -96 -212q0 -101 19 -149q23 -57 79 -57zM28 359q0 182 93 275q80 81 213 81q141 0 221 -90q84 -93 84 -265q0 -167 -67 -263q-78 -112 -238 -112t-239 111q-67 96 -67 263z" />
    <glyph glyph-name="one" unicode="1" 
d="M469 715v-715h-208v411h-163v142q183 3 213 162h158z" />
    <glyph glyph-name="two" unicode="2" 
d="M649 0h-593q-5 107 84 200q44 46 131 103q95 63 120 86q52 47 52 99q0 32 -25.5 51.5t-59.5 19.5q-104 0 -102 -135h-187q4 291 299 291q121 0 196 -52q87 -61 87 -176q0 -82 -59 -141q-30 -30 -128 -91q-52 -29 -142 -85h327v-170z" />
    <glyph glyph-name="three" unicode="3" 
d="M35 245h196q-2 -48 25 -76t75 -28q43 0 69 26q24 23 24 56q0 53 -46 69q-24 9 -84 9v123q47 -4 80 10q44 18 44 62q0 63 -82 63t-91 -75h-188q5 115 90 176q76 55 195 55q125 0 198 -53.5t73 -143.5q0 -99 -82 -139q101 -39 101 -147q0 -120 -83.5 -183.5t-228.5 -63.5
q-129 0 -205 64q-82 70 -80 196z" />
    <glyph glyph-name="four" unicode="4" 
d="M25 147v167l329 391h194v-403h88v-155h-88v-147h-198v147h-325zM350 517l-168 -215h168v215z" />
    <glyph glyph-name="five" unicode="5" 
d="M54 304l70 401h452v-170h-306l-23 -106q52 38 146 38q104 0 172 -60t68 -163q0 -136 -98 -203q-82 -56 -218 -56q-233 0 -294 199l209 21q0 -1 1 -3.5t1 -3.5q9 -27 34.5 -42t55.5 -15q45 0 73 26.5t28 66.5q0 102 -91 102q-64 0 -84 -39z" />
    <glyph glyph-name="six" unicode="6" 
d="M344 326q-98 -2 -98 -101q0 -38 28 -64.5t66 -26.5q92 0 92 98q0 42 -24.5 68.5t-63.5 25.5zM623 529l-194 -12q-16 56 -84 56q-55 0 -82 -44.5t-26 -117.5q73 51 165 51q114 0 181 -76q57 -66 57 -152q0 -123 -81 -189q-75 -60 -201 -60q-331 0 -331 367q0 165 81.5 264
t226.5 99q249 0 288 -186z" />
    <glyph glyph-name="seven" unicode="7" 
d="M418 535h-362v170h567v-158q-98 -80 -161 -223q-66 -150 -71 -324h-216q29 310 243 535z" />
    <glyph glyph-name="eight" unicode="8" 
d="M360 135q69 11 69 84q0 42 -26 66.5t-68 24.5q-98 0 -98 -92q0 -42 30 -64q27 -21 69 -21q12 0 24 2zM332 423q37 0 62.5 19.5t25.5 55.5q0 35 -24.5 55.5t-61.5 20.5q-40 0 -65 -20t-25 -58q1 -73 88 -73zM143 369q-47 26 -66 52q-25 35 -25 95q0 97 88 151
q78 48 201 48q119 0 195 -55t76 -140q0 -109 -93 -146q118 -46 118 -165q0 -105 -83.5 -164.5t-219.5 -59.5q-133 0 -214 54q-91 60 -91 170q0 60 30 99q27 34 84 61z" />
    <glyph glyph-name="nine" unicode="9" 
d="M321 375q98 2 98 101q0 38 -28 64.5t-66 26.5q-92 0 -92 -98q0 -42 24.5 -68.5t63.5 -25.5zM42 171l194 12q16 -56 84 -56q55 0 83 47q26 42 25 115q-73 -51 -165 -51q-114 0 -180 76q-58 66 -58 152q0 123 81 189q75 60 201 60q331 0 331 -367q0 -165 -80 -263
q-83 -100 -228 -100q-249 0 -288 186z" />
    <glyph glyph-name="colon" unicode=":" horiz-adv-x="333" 
d="M272 0h-212v206h212v-206zM272 318h-212v206h212v-206z" />
    <glyph glyph-name="semicolon" unicode=";" horiz-adv-x="333" 
d="M58 206h212v-174q0 -197 -212 -208v87q91 12 97 89h-97v206zM270 318h-212v206h212v-206z" />
    <glyph glyph-name="less" unicode="&#x3c;" horiz-adv-x="660" 
d="M584 108v-128l-509 226v99l509 227v-128l-356 -150z" />
    <glyph glyph-name="equal" unicode="=" horiz-adv-x="660" 
d="M582 412v-116h-504v116h504zM582 216v-116h-504v116h504z" />
    <glyph glyph-name="greater" unicode="&#x3e;" horiz-adv-x="660" 
d="M74 108l356 146l-356 150v128l509 -227v-99l-509 -226v128z" />
    <glyph glyph-name="question" unicode="?" horiz-adv-x="611" 
d="M387 269h-184q-7 101 37 150q19 20 85 52q48 23 48 60q0 58 -74 58q-65 0 -65 -83h-207q6 114 90 177q76 56 194 56q120 0 193 -51q77 -55 77 -153q0 -71 -51 -114q-47 -29 -94 -59q-50 -33 -50 -77q0 -8 1 -16zM192 194h206v-194h-206v194z" />
    <glyph glyph-name="at" unicode="@" horiz-adv-x="740" 
d="M280 338q0 -37 20.5 -62.5t55.5 -25.5q45 0 73.5 33t28.5 78q0 37 -22 61t-58 24q-41 0 -69.5 -33.5t-28.5 -74.5zM487 493l10 51h95l-49 -292q-3 -21 -3 -23q1 -13 15 -13q35 0 65 51q32 55 32 132q0 118 -77 186q-72 64 -191 64q-125 0 -202 -81.5t-77 -207.5
q0 -131 83 -210t213 -79q105 0 191 67h99q-114 -157 -298 -157q-163 0 -275.5 108t-112.5 271q0 161 111 270t271 109q136 0 235 -84q112 -95 112 -223t-77 -206q-32 -32 -80 -57q-53 -28 -93 -28q-61 0 -58 51q-44 -47 -98 -47q-67 0 -117.5 52t-50.5 125q0 92 56 159
q58 71 148 71q80 0 123 -59z" />
    <glyph glyph-name="A" unicode="A" horiz-adv-x="778" 
d="M463 245l-76 258l-73 -258h149zM242 0h-231l258 720h240l258 -720h-235l-28 95h-235z" />
    <glyph glyph-name="B" unicode="B" horiz-adv-x="778" 
d="M383 301h-75v-133h103q102 0 102 66q0 43 -37 57q-26 10 -93 10zM391 552h-83v-120h98q81 0 81 63q0 38 -29 50q-19 7 -67 7zM423 0h-351v720h344q291 0 291 -181q0 -98 -94 -157q57 -15 88.5 -60t31.5 -105q0 -217 -310 -217z" />
    <glyph glyph-name="C" unicode="C" horiz-adv-x="778" 
d="M743 445h-224q-11 118 -128 118q-133 0 -133 -210q0 -90 26 -136q34 -60 116 -60q105 0 121 122h227q-16 -139 -108.5 -218.5t-235.5 -79.5q-178 0 -280 102t-102 278q0 171 104 276q101 102 255 102q163 0 255.5 -76.5t106.5 -217.5z" />
    <glyph glyph-name="D" unicode="D" horiz-adv-x="778" 
d="M301 552v-384h50q170 0 170 194q0 110 -39 150t-136 40h-45zM375 0h-310v720h316q179 0 275 -84q101 -88 101 -261q0 -375 -382 -375z" />
    <glyph glyph-name="E" unicode="E" horiz-adv-x="722" 
d="M677 0h-601v720h587v-168h-351v-103h297v-168h-297v-113h365v-168z" />
    <glyph glyph-name="F" unicode="F" 
d="M310 0h-236v720h560v-168h-324v-131h258v-168h-258v-253z" />
    <glyph glyph-name="G" unicode="G" horiz-adv-x="833" 
d="M766 396v-398h-152l-9 71q-75 -88 -217 -88q-148 0 -243 91q-106 100 -106 279q0 174 102 281t275 107q134 0 225 -67q95 -71 116 -200h-224q-26 91 -121 91q-68 0 -102.5 -56.5t-34.5 -154.5q0 -195 151 -195q38 0 75 23.5t46 59.5h-104v156h323z" />
    <glyph glyph-name="H" unicode="H" horiz-adv-x="833" 
d="M305 0h-236v720h236v-243h223v243h236v-720h-236v279h-223v-279z" />
    <glyph glyph-name="I" unicode="I" horiz-adv-x="389" 
d="M312 0h-236v720h236v-720z" />
    <glyph glyph-name="J" unicode="J" 
d="M27 313h210q0 -76 8 -106q13 -50 54 -50q60 0 60 88v475h236v-442q0 -297 -281 -297q-289 0 -289 281q0 25 2 51z" />
    <glyph glyph-name="K" unicode="K" horiz-adv-x="833" 
d="M75 0v720h236v-233l207 233h277l-263 -271l291 -449h-283l-173 287l-56 -59v-228h-236z" />
    <glyph glyph-name="L" unicode="L" 
d="M636 0h-560v720h236v-552h324v-168z" />
    <glyph glyph-name="M" unicode="M" horiz-adv-x="944" 
d="M272 0h-212v720h285l127 -449l127 449h285v-720h-212v220l3 112l12 130h-2l-131 -462h-164l-131 462h-2l10 -106l5 -112v-244z" />
    <glyph glyph-name="N" unicode="N" horiz-adv-x="833" 
d="M290 720l257 -393l-9 164v229h226v-720h-221l-257 392l9 -164v-228h-226v720h221z" />
    <glyph glyph-name="O" unicode="O" horiz-adv-x="833" 
d="M414 563q-73 -1 -110 -66q-29 -52 -29 -133q0 -84 28 -138q36 -69 113 -69q142 0 142 207q0 83 -33 137q-39 63 -111 62zM416 739q182 0 285 -116q93 -104 93 -259q0 -179 -109 -283q-104 -100 -269 -100q-172 0 -273 101q-104 103 -104 284q0 169 104 271t273 102z" />
    <glyph glyph-name="P" unicode="P" horiz-adv-x="722" 
d="M293 392h98q95 0 95 84q0 76 -126 76h-67v-160zM293 0h-236v720h347q152 0 231 -66q76 -63 76 -177q0 -253 -299 -253h-119v-224z" />
    <glyph glyph-name="Q" unicode="Q" horiz-adv-x="833" 
d="M371 245l100 105l77 -78q10 36 10 92q0 92 -38.5 145.5t-105.5 53.5q-73 0 -110 -65q-29 -53 -29 -134q0 -84 28 -138q36 -69 113 -69q17 0 36 7zM792 24l-99 -105l-98 99q-83 -37 -179 -37q-173 0 -275 102.5t-102 282.5q0 169 104 271t273 102q173 0 278 -109
q100 -105 100 -266q0 -153 -84 -257z" />
    <glyph glyph-name="R" unicode="R" horiz-adv-x="778" 
d="M297 552v-143h93q112 0 112 68q0 75 -95 75h-110zM369 251h-72v-251h-236v720h340q176 0 250 -50q69 -47 69 -155q0 -143 -121 -176q68 -25 90 -52q32 -40 32 -139q0 -84 2 -98q4 -28 23 -28v-22h-239q-12 32 -12 126q0 74 -22 98q-25 27 -104 27z" />
    <glyph glyph-name="S" unicode="S" horiz-adv-x="722" 
d="M669 511h-224q-5 34 -34 49q-25 13 -61 13q-75 0 -75 -41t107 -68q155 -40 200 -64q107 -58 107 -171q0 -121 -94 -187q-89 -61 -243 -61q-139 0 -229 72q-86 68 -90 169h226q7 -37 39 -57q29 -18 67 -18q98 0 98 53q0 41 -107 67q-153 38 -200 64q-107 59 -107 178
q0 111 89 172q83 58 223 58q142 0 223 -67q71 -59 85 -161z" />
    <glyph glyph-name="T" unicode="T" horiz-adv-x="722" 
d="M31 531v189h660v-189h-212v-531h-236v531h-212z" />
    <glyph glyph-name="U" unicode="U" horiz-adv-x="833" 
d="M70 314v406h236v-431q0 -63 19 -93q26 -39 92 -39q110 0 110 132v431h236v-407q0 -173 -83 -252.5t-263 -79.5q-174 0 -257 74q-90 79 -90 259z" />
    <glyph glyph-name="V" unicode="V" horiz-adv-x="778" 
d="M268 0l-246 720h238l126 -479l131 479h238l-250 -720h-237z" />
    <glyph glyph-name="W" unicode="W" horiz-adv-x="1000" 
d="M597 720l86 -445h2l81 445h228l-179 -720h-232l-83 418h-2l-82 -418h-232l-179 720h228l81 -445h2l86 445h195z" />
    <glyph glyph-name="X" unicode="X" horiz-adv-x="778" 
d="M389 202l-116 -202h-265l255 374l-230 346h265l102 -184l103 184h265l-243 -346l245 -374h-265z" />
    <glyph glyph-name="Y" unicode="Y" horiz-adv-x="778" 
d="M507 266v-266h-236v262l-268 458h264l124 -244l124 244h260z" />
    <glyph glyph-name="Z" unicode="Z" horiz-adv-x="722" 
d="M685 0h-649v171l345 381h-331v168h621v-167l-350 -385h364v-168z" />
    <glyph glyph-name="bracketleft" unicode="[" horiz-adv-x="389" 
d="M356 -178h-312v898h312v-148h-129v-602h129v-148z" />
    <glyph glyph-name="backslash" unicode="\" horiz-adv-x="278" 
d="M-107 720h140l352 -720h-140z" />
    <glyph glyph-name="bracketright" unicode="]" horiz-adv-x="389" 
d="M345 720v-898h-312v148h129v602h-129v148h312z" />
    <glyph glyph-name="asciicircum" unicode="^" horiz-adv-x="660" 
d="M194 291l-104 47l180 377h120l180 -377l-104 -47l-136 279z" />
    <glyph glyph-name="underscore" unicode="_" horiz-adv-x="500" 
d="M500 -119h-500v58h500v-58z" />
    <glyph glyph-name="grave" unicode="`" horiz-adv-x="333" 
d="M-36 738h208l100 -148h-137z" />
    <glyph glyph-name="a" unicode="a" 
d="M634 0h-215l-10 56q-76 -71 -197 -71q-80 0 -131 38q-56 43 -56 120q0 103 97 143q40 17 179 35q97 13 97 50q0 43 -68 43q-67 0 -73 -51h-200q0 176 286 176q169 0 225 -62q38 -42 38 -155v-245q0 -26 4 -36q5 -16 24 -31v-10zM306 103q101 0 92 129q-23 -11 -70 -21
t-62 -19q-26 -15 -26 -45q0 -44 66 -44z" />
    <glyph glyph-name="b" unicode="b" 
d="M256 720v-249q58 68 151 68q100 0 164 -77.5t64 -196.5q0 -125 -54 -198q-62 -82 -183 -82q-115 0 -161 89h-2v-74h-187v720h208zM339 135q47 0 70 40q18 33 18 83q0 49 -19 81q-23 39 -69 39q-44 0 -68 -38q-20 -32 -20 -78q0 -51 19 -84q23 -43 69 -43z" />
    <glyph glyph-name="c" unicode="c" 
d="M618 324h-211q-1 33 -22 54t-54 21q-91 0 -91 -143q0 -131 91 -131q70 0 81 78h210q-13 -112 -98 -169q-75 -49 -193 -49q-131 0 -213 70q-86 73 -86 202q0 131 85 208q81 74 214 74q115 0 190 -49q86 -57 97 -166z" />
    <glyph glyph-name="d" unicode="d" 
d="M619 0h-187v70q-65 -85 -161 -85q-114 0 -178 78q-60 73 -60 189q0 128 64 209q63 78 158 78q98 0 156 -68v249h208v-720zM323 135q95 0 95 122q0 121 -89 121q-88 0 -88 -124q0 -119 82 -119z" />
    <glyph glyph-name="e" unicode="e" 
d="M239 321h189q0 36 -27.5 63.5t-64.5 27.5q-97 0 -97 -91zM636 215h-397q0 -45 30 -74t73 -29q56 0 78 46h199q-25 -90 -113 -135q-74 -38 -177 -38q-131 0 -212 70q-86 74 -86 202q0 127 86 206q83 76 211 76q144 0 227 -90t81 -234z" />
    <glyph glyph-name="f" unicode="f" horiz-adv-x="389" 
d="M286 524h87v-120h-87v-404h-208v404h-69v120h70q0 130 53 177q43 38 152 38h89v-131q-57 0 -71 -10q-19 -15 -16 -74z" />
    <glyph glyph-name="g" unicode="g" 
d="M324 390q-82 1 -82 -119q0 -42 20 -70q22 -31 62 -32q45 -1 68 32q20 29 20 76q0 112 -88 113zM61 -27h209q0 -18 21 -28q17 -8 37 -8q45 0 64.5 23t19.5 79v43q-57 -57 -150 -57q-105 0 -168 74q-60 69 -60 174q0 110 53 181q62 85 181 85q98 0 159 -84v69h183v-422
q0 -142 -41 -199q-59 -81 -235 -81q-129 0 -202 47q-63 40 -71 104z" />
    <glyph glyph-name="h" unicode="h" 
d="M48 0v720h208v-262q64 81 159 81q203 0 203 -225v-314h-208v277q0 98 -73 98q-81 0 -81 -108v-267h-208z" />
    <glyph glyph-name="i" unicode="i" horiz-adv-x="333" 
d="M270 0h-208v524h208v-524zM62 591v148h208v-148h-208z" />
    <glyph glyph-name="j" unicode="j" horiz-adv-x="333" 
d="M74 524h208v-474q0 -117 -31 -163q-44 -65 -176 -65q-39 0 -95 3v148q63 0 78.5 12t15.5 65v474zM282 591h-208v148h208v-148z" />
    <glyph glyph-name="k" unicode="k" 
d="M300 186l-39 -39v-147h-208v720h208v-356l133 160h243l-194 -203l219 -321h-250z" />
    <glyph glyph-name="l" unicode="l" horiz-adv-x="333" 
d="M270 0h-208v720h208v-720z" />
    <glyph glyph-name="m" unicode="m" horiz-adv-x="1000" 
d="M45 0v524h191v-78q23 35 65 62q49 31 101 31q128 0 171 -96q69 96 181 96q110 0 158 -61q43 -54 43 -168v-310h-208v267q0 59 -15 83.5t-55 24.5q-73 0 -73 -116v-259h-208v267q0 59 -15 83.5t-55 24.5q-73 0 -73 -116v-259h-208z" />
    <glyph glyph-name="n" unicode="n" 
d="M48 0v524h190v-82q72 97 177 97q203 0 203 -225v-314h-208v277q0 98 -73 98q-81 0 -81 -108v-267h-208z" />
    <glyph glyph-name="o" unicode="o" 
d="M335 399q-49 -1 -73 -45q-19 -34 -19 -87q0 -142 90 -142t90 142q0 59 -24 96t-64 36zM35 256q0 134 82 210q80 73 215 73q138 0 218.5 -74.5t80.5 -197.5q0 -138 -86 -213q-79 -69 -212 -69q-131 0 -212 68q-86 73 -86 203z" />
    <glyph glyph-name="p" unicode="p" 
d="M44 524h187v-78h2q20 45 70 71q44 22 94 22q113 0 176 -82q58 -75 58 -191q0 -143 -79 -218q-66 -63 -166 -63q-81 0 -134 67v-230h-208v702zM333 144q41 0 65.5 32.5t24.5 86.5q0 122 -91 122q-37 0 -60.5 -32.5t-23.5 -85.5q0 -56 22.5 -89.5t62.5 -33.5z" />
    <glyph glyph-name="q" unicode="q" 
d="M413 263q0 49 -18 81q-23 40 -68 40q-47 0 -71 -36q-21 -32 -21 -81q0 -125 92 -125q42 0 66 41q20 35 20 80zM616 524v-702h-208v229q-31 -38 -68 -53q-33 -13 -86 -13q-94 0 -158 72q-69 79 -69 212q0 110 59 187q65 83 172 83q123 0 169 -93h2v78h187z" />
    <glyph glyph-name="r" unicode="r" horiz-adv-x="444" 
d="M52 0v524h189v-106h2q43 121 161 121l27 -3v-208q-42 6 -43 6q-66 0 -97 -35t-31 -118v-181h-208z" />
    <glyph glyph-name="s" unicode="s" horiz-adv-x="611" 
d="M33 163h198q0 -30 21 -47t52 -17q66 0 66 47q0 32 -83 49q-121 26 -155 42q-83 41 -83 129q0 91 83 137q66 36 165 36q246 0 260 -165h-189q-6 51 -62 51q-59 0 -59 -37q0 -27 86 -46q120 -26 159 -46q86 -43 86 -128t-69 -132q-73 -51 -213 -51q-106 0 -172 36
q-83 45 -91 142z" />
    <glyph glyph-name="t" unicode="t" horiz-adv-x="444" 
d="M394 149v-149q-74 -4 -118 -4q-121 0 -156 38q-32 35 -32 151v219h-74v120h77v163h205v-163h100v-120h-100v-190q0 -38 11 -50q12 -15 54 -15h33z" />
    <glyph glyph-name="u" unicode="u" 
d="M618 524v-524h-193v77q-38 -53 -82 -73q-40 -19 -107 -19q-88 0 -138 55t-50 165v319h208v-283q0 -52 18 -73.5t57 -21.5q79 0 79 126v252h208z" />
    <glyph glyph-name="v" unicode="v" horiz-adv-x="611" 
d="M192 0l-182 524h208l92 -331l91 331h200l-177 -524h-232z" />
    <glyph glyph-name="w" unicode="w" horiz-adv-x="944" 
d="M563 524l80 -324h2l81 324h197l-167 -524h-203l-81 307h-2l-73 -307h-203l-173 524h203l80 -324h2l81 324h176z" />
    <glyph glyph-name="x" unicode="x" 
d="M27 0l188 274l-173 250h231l66 -131l70 131h228l-179 -249l181 -275h-232l-74 150l-76 -150h-230z" />
    <glyph glyph-name="y" unicode="y" horiz-adv-x="611" 
d="M215 524l92 -323l91 323h200l-168 -489q-46 -133 -82 -167q-50 -46 -180 -46q-22 0 -54.5 2t-37.5 2v145q8 0 22 -1h21q68 0 68 37q0 16 -9 40l-172 477h209z" />
    <glyph glyph-name="z" unicode="z" horiz-adv-x="556" 
d="M530 0h-504v139l237 233h-216v152h472v-145l-229 -227h240v-152z" />
    <glyph glyph-name="braceleft" unicode="{" horiz-adv-x="389" 
d="M292 129v-186q0 -52 16.5 -79.5t58.5 -39.5v-2q-42 -3 -77 -3q-128 0 -166 45q-24 29 -24 119v176q0 55 -15 80.5t-60 37.5v2q42 11 58.5 38t16.5 79v200q0 86 31 113q37 32 156 32q34 0 80 -2v-2q-43 -14 -59 -40.5t-16 -80.5v-201q0 -61 -15 -90q-19 -35 -67 -46v-2
q48 -13 65 -44t17 -104z" />
    <glyph glyph-name="bar" unicode="|" horiz-adv-x="278" 
d="M79 0v739h119v-739h-119z" />
    <glyph glyph-name="braceright" unicode="}" horiz-adv-x="389" 
d="M289 165v-200q0 -86 -31 -113q-37 -32 -156 -32q-34 0 -80 2v2q43 14 59 40.5t16 80.5v201q0 61 16 90q18 35 66 46v2q-48 13 -65 44t-17 104v186q0 52 -16.5 79.5t-58.5 39.5v2q42 3 77 3q128 0 166 -45q24 -29 24 -119v-176q0 -55 14 -79q16 -27 61 -39v-2
q-42 -11 -58.5 -38t-16.5 -79z" />
    <glyph glyph-name="asciitilde" unicode="~" horiz-adv-x="660" 
d="M518 359v0l64 -73q-37 -59 -57 -79q-38 -38 -87 -38q-48 0 -114 33t-95 33q-30 0 -54 -28q-6 -8 -33 -54l-64 74q67 124 149 124q40 0 115 -33t95 -33q27 0 49 26z" />
    <glyph glyph-name="exclamdown" unicode="&#xa1;" horiz-adv-x="333" 
d="M273 -193h-213v169l51 284h112l50 -284v-169zM270 330h-207v194h207v-194z" />
    <glyph glyph-name="cent" unicode="&#xa2;" 
d="M266 152l110 243q-21 9 -43 9q-48 0 -72.5 -37.5t-24.5 -99.5q0 -73 30 -115zM302 -15l-55 -132h-135l69 162q-69 31 -109 99q-37 65 -37 144q0 143 90 216q80 65 212 65q23 0 71 -6l51 122h133l-69 -160q82 -54 98 -167h-200l-93 -208h21q71 14 80 85h199
q-15 -118 -94.5 -170t-231.5 -50z" />
    <glyph glyph-name="sterling" unicode="&#xa3;" 
d="M116 -1l-81 159q89 59 89 134q0 13 -2 27h-89v90h60q-34 59 -34 103q0 111 90 168q75 47 193 47q283 0 289 -253h-190q-3 96 -92 96q-32 0 -54.5 -18t-22.5 -46q0 -18 11 -42q11 -19 21 -39l8 -16h104v-90h-92q-10 -68 -63 -109l-9 -7q4 0 20 2.5t24 2.5q31 0 80 -10
q5 -1 47 -13q27 -7 46 -7q45 0 95 46l80 -167q-26 -26 -73.5 -47.5t-81.5 -21.5q-55 0 -125 26q-84 31 -121 31t-67 -13q-12 -5 -60 -33z" />
    <glyph glyph-name="currency" unicode="&#xa4;" horiz-adv-x="660" 
d="M76 137l44 44q-37 66 -37 128q0 70 37 131l-44 43l79 80l44 -44q63 38 129 38q73 0 134 -38l44 44l77 -80l-44 -43q38 -61 38 -130q0 -75 -38 -129l44 -44l-77 -79l-44 44q-65 -39 -129 -39q-74 0 -134 39l-44 -44zM330 187q52 0 87.5 36.5t35.5 86.5t-35.5 86.5
t-87.5 36.5t-87.5 -36.5t-35.5 -86.5t35.5 -86.5t87.5 -36.5z" />
    <glyph glyph-name="yen" unicode="&#xa5;" 
d="M336 476l105 244h227l-122 -240h122v-95h-173l-49 -95h222v-95h-231v-195h-208v195h-230v95h222l-49 95h-173v95h123l-123 240h231z" />
    <glyph glyph-name="brokenbar" unicode="&#xa6;" horiz-adv-x="278" 
d="M198 296v-296h-119v296h119zM79 443v296h119v-296h-119z" />
    <glyph glyph-name="section" unicode="&#xa7;" 
d="M259 260l140 -61q20 3 37 18.5t17 33.5q0 31 -32 45l-154 69q-54 -17 -54 -54q0 -31 46 -51zM557 548h-157q-3 75 -67 75q-67 0 -67 -45q0 -39 85 -71q125 -46 157 -67q85 -57 85 -158q0 -104 -98 -148q70 -54 70 -134q0 -74 -66 -122.5t-159 -48.5q-101 0 -163 45
q-69 50 -73 148h155q7 -77 74 -77q74 0 74 48q0 38 -87 67q-125 40 -160 63q-87 56 -87 163q0 52 31 92q28 36 72 52q-68 56 -68 139q0 86 72 131q62 39 157 39q88 0 145 -42q62 -45 72 -129q3 -9 3 -20z" />
    <glyph glyph-name="dieresis" unicode="&#xa8;" horiz-adv-x="333" 
d="M199 596v130h169v-130h-169zM140 596h-169v130h169v-130z" />
    <glyph glyph-name="copyright" unicode="&#xa9;" horiz-adv-x="800" 
d="M400 -19q-158 0 -268.5 110.5t-110.5 268.5t110.5 268.5t268.5 110.5t268.5 -110.5t110.5 -268.5q0 -157 -110.5 -268t-268.5 -111zM400 71q122 0 200.5 81t78.5 208t-78.5 208t-200.5 81q-123 0 -201 -81t-78 -208t78 -208t201 -81zM593 439h-86q-12 69 -94 69
q-54 0 -84 -43q-28 -39 -28 -100q0 -58 30 -100q33 -47 85 -47q35 0 62 20.5t29 53.5h86q-8 -67 -58.5 -107t-118.5 -40q-94 0 -152 62.5t-58 155.5q0 96 56.5 157.5t151.5 61.5q69 0 118 -38.5t61 -104.5z" />
    <glyph glyph-name="ordfeminine" unicode="&#xaa;" horiz-adv-x="400" 
d="M12 262v65h386v-65h-386zM398 416h-139l-7 34q-50 -43 -128 -43q-52 0 -85 23q-37 25 -37 72q0 62 63 86q26 10 117 21q63 8 63 30q0 25 -44 25t-48 -30h-130q0 105 186 105q110 0 146 -37q25 -26 25 -93v-147q0 -26 18 -37v-9zM185 478q65 0 60 77q-33 -8 -65 -17
q-43 -12 -43 -34q0 -26 48 -26z" />
    <glyph glyph-name="guillemotleft" unicode="&#xab;" 
d="M303 64l-183 118v146l183 120v-131l-101 -65l101 -59v-129zM547 64l-183 118v146l183 120v-131l-101 -65l101 -59v-129z" />
    <glyph glyph-name="logicalnot" unicode="&#xac;" horiz-adv-x="660" 
d="M466 120v176h-388v116h504v-292h-116z" />
    <glyph glyph-name="minus" unicode="&#xad;" horiz-adv-x="660" 
d="M78 198v116h504v-116h-504z" />
    <glyph glyph-name="minus" unicode="&#x2212;" horiz-adv-x="660" 
d="M78 198v116h504v-116h-504z" />
    <glyph glyph-name="registered" unicode="&#xae;" horiz-adv-x="800" 
d="M400 -19q-158 0 -268.5 111t-110.5 268t110.5 268t268.5 111q157 0 268 -111t111 -268t-111 -268t-268 -111zM400 71q122 0 200.5 81t78.5 208t-78.5 208t-200.5 81q-123 0 -201 -81t-78 -208t78 -208t201 -81zM489 327l99 -173h-99l-91 173h-68v-173h-86v409h198
q83 0 120 -26q39 -29 39 -99q0 -103 -112 -111zM330 388h113q78 0 78 61q0 36 -34 46q-17 5 -64 5h-93v-112z" />
    <glyph glyph-name="macron" unicode="&#xaf;" horiz-adv-x="333" 
d="M358 619h-377v90h377v-90z" />
    <glyph glyph-name="macron" unicode="&#x2c9;" horiz-adv-x="333" 
d="M358 619h-377v90h377v-90z" />
    <glyph glyph-name="degree" unicode="&#xb0;" horiz-adv-x="400" 
d="M350 565q0 -62 -44 -106t-106 -44t-106 44t-44 106t44 106t106 44t106 -44t44 -106zM271 562q0 30 -21.5 52t-51.5 22t-50 -22t-19 -52q1 -31 20 -49.5t50 -18.5t51.5 18.5t20.5 49.5z" />
    <glyph glyph-name="plusminus" unicode="&#xb1;" horiz-adv-x="660" 
d="M272 442v161h116v-161h194v-116h-194v-168h-116v168h-194v116h194zM78 0v116h504v-116h-504z" />
    <glyph glyph-name="twosuperior" unicode="&#xb2;" horiz-adv-x="400" 
d="M180 412h213v-102h-386q-3 65 55 120q21 20 127 88q70 44 70 85q0 19 -16.5 30.5t-38.5 11.5q-67 0 -67 -81h-121q3 175 194 175q79 0 128 -31q56 -37 56 -106q0 -49 -39 -84q-19 -19 -83 -55q-34 -17 -92 -51z" />
    <glyph glyph-name="threesuperior" unicode="&#xb3;" horiz-adv-x="400" 
d="M6 433h128q-3 -62 65 -62q28 0 44 14.5t16 34.5q0 31 -30 42q-16 5 -54 5v73q80 -5 80 44q0 37 -53 37t-59 -45h-122q3 69 58 106q49 33 127 33q81 0 128.5 -32t47.5 -86q0 -60 -53 -84q66 -24 66 -88q0 -72 -54.5 -110t-148.5 -38q-84 0 -133 39q-54 41 -53 117z" />
    <glyph glyph-name="acute" unicode="&#xb4;" horiz-adv-x="333" 
d="M66 590l100 148h209l-172 -148h-137z" />
    <glyph glyph-name="mu" unicode="&#xb5;" 
d="M618 0h-193v77q-68 -94 -169 -89v-166h-208v702h208v-283q0 -52 18 -73.5t57 -21.5q79 0 79 126v252h208v-524z" />
    <glyph glyph-name="mu" unicode="&#x3bc;" 
d="M618 0h-193v77q-68 -94 -169 -89v-166h-208v702h208v-283q0 -52 18 -73.5t57 -21.5q79 0 79 126v252h208v-524z" />
    <glyph glyph-name="paragraph" unicode="&#xb6;" horiz-adv-x="850" 
d="M410 556v-734h-164v549q-87 0 -139.5 46t-52.5 125q0 100 70 143q58 35 175 35h408v-164h-50v-734h-164v734h-83z" />
    <glyph glyph-name="periodcentered" unicode="&#xb7;" horiz-adv-x="333" 
d="M166 126q-53 0 -91.5 38.5t-38.5 91.5t38.5 91.5t91.5 38.5t91.5 -38.5t38.5 -91.5t-38.5 -91.5t-91.5 -38.5z" />
    <glyph glyph-name="periodcentered" unicode="&#x2219;" horiz-adv-x="333" 
d="M166 126q-53 0 -91.5 38.5t-38.5 91.5t38.5 91.5t91.5 38.5t91.5 -38.5t38.5 -91.5t-38.5 -91.5t-91.5 -38.5z" />
    <glyph glyph-name="cedilla" unicode="&#xb8;" horiz-adv-x="333" 
d="M28 -204l21 46q21 -6 42 -13q25 -7 43 -7q25 0 39 10t14 25t-12.5 26t-32.5 11q-18 0 -38 -10l-25 24l55 92h58l-39 -64q15 6 60 2q29 -3 51.5 -24t22.5 -50q0 -9 -3 -18q-11 -37 -49 -59q-34 -19 -76 -19q-54 0 -131 28z" />
    <glyph glyph-name="onesuperior" unicode="&#xb9;" horiz-adv-x="400" 
d="M321 739v-429h-135v247h-106v85q118 2 138 97h103z" />
    <glyph glyph-name="ordmasculine" unicode="&#xba;" horiz-adv-x="400" 
d="M201 655q-60 -1 -60 -79q0 -85 59 -85t59 85q0 35 -16 57.5t-42 21.5zM6 570q0 80 52.5 124.5t140.5 44.5q90 0 142.5 -44.5t52.5 -118.5q0 -83 -56 -128q-52 -41 -138 -41q-85 0 -138 41q-56 44 -56 122zM384 262h-368v65h368v-65z" />
    <glyph glyph-name="guillemotright" unicode="&#xbb;" 
d="M364 448l183 -118v-146l-183 -120v131l101 65l-101 59v129zM120 448l183 -118v-146l-183 -120v131l101 65l-101 59v129z" />
    <glyph glyph-name="onequarter" unicode="&#xbc;" horiz-adv-x="1000" 
d="M281 739v-429h-135v247h-106v85q118 2 138 97h103zM563 88v100l214 235h126v-242h57v-93h-57v-88h-129v88h-211zM774 310l-109 -129h109v129zM331 -15h-98l403 730h98z" />
    <glyph glyph-name="onehalf" unicode="&#xbd;" horiz-adv-x="1000" 
d="M281 739v-429h-135v247h-106v85q118 2 138 97h103zM746 102h213v-102h-386q-3 65 55 120q21 20 127 88q70 44 70 85q0 19 -16.5 30.5t-38.5 11.5q-67 0 -67 -81h-121q3 175 194 175q79 0 128 -31q56 -37 56 -106q0 -49 -39 -84q-19 -19 -83 -55q-34 -17 -92 -51zM291 -15
h-98l403 730h98z" />
    <glyph glyph-name="threequarters" unicode="&#xbe;" horiz-adv-x="1000" 
d="M563 88v100l214 235h126v-242h57v-93h-57v-88h-129v88h-211zM774 310l-109 -129h109v129zM371 -15h-98l403 730h98zM40 433h128q-3 -62 65 -62q28 0 44 14.5t16 34.5q0 31 -30 42q-16 5 -54 5v73q80 -5 80 44q0 37 -53 37t-59 -45h-122q3 69 58 106q49 33 127 33
q81 0 128.5 -32t47.5 -86q0 -60 -53 -84q66 -24 66 -88q0 -72 -54.5 -110t-148.5 -38q-84 0 -133 39q-54 41 -53 117z" />
    <glyph glyph-name="questiondown" unicode="&#xbf;" horiz-adv-x="611" 
d="M224 254h184q7 -101 -37 -149q-18 -20 -85 -52q-47 -23 -48 -61q-1 -58 74 -58q67 0 65 83h207q-6 -114 -89 -177q-77 -56 -195 -56q-120 0 -192 51q-78 55 -78 153q0 71 51 114q47 30 95.5 61t48.5 75q0 8 -1 16zM418 329h-206v195h206v-195z" />
    <glyph glyph-name="Agrave" unicode="&#xc0;" horiz-adv-x="778" 
d="M463 245l-76 258l-73 -258h149zM242 0h-231l258 720h240l258 -720h-235l-28 95h-235zM187 934h208l100 -148h-137z" />
    <glyph glyph-name="Aacute" unicode="&#xc1;" horiz-adv-x="778" 
d="M463 245l-76 258l-73 -258h149zM242 0h-231l258 720h240l258 -720h-235l-28 95h-235zM289 786l100 148h209l-172 -148h-137z" />
    <glyph glyph-name="Acircumflex" unicode="&#xc2;" horiz-adv-x="778" 
d="M463 245l-76 258l-73 -258h149zM242 0h-231l258 720h240l258 -720h-235l-28 95h-235zM189 786l121 148h164l122 -148h-148l-56 76l-56 -76h-147z" />
    <glyph glyph-name="Atilde" unicode="&#xc3;" horiz-adv-x="778" 
d="M463 245l-76 258l-73 -258h149zM242 0h-231l258 720h240l258 -720h-235l-28 95h-235zM508 925v0h80q-19 -133 -125 -133q-33 0 -80.5 18.5t-64.5 18.5q-29 0 -43 -43h-79q7 56 36 95q34 46 87 46q31 0 64 -12q30 -11 61 -23q10 -3 19 -3q40 0 45 36z" />
    <glyph glyph-name="Adieresis" unicode="&#xc4;" horiz-adv-x="778" 
d="M463 245l-76 258l-73 -258h149zM242 0h-231l258 720h240l258 -720h-235l-28 95h-235zM422 792v130h169v-130h-169zM363 792h-169v130h169v-130z" />
    <glyph glyph-name="Aring" unicode="&#xc5;" horiz-adv-x="778" 
d="M463 245l-76 258l-73 -258h149zM242 0h-231l258 720h240l258 -720h-235l-28 95h-235zM390 789q-46 0 -79.5 33t-33.5 79t33.5 79t79.5 33t79 -33t33 -79t-33 -79t-79 -33zM390 953q-21 0 -37 -15.5t-16 -36.5t16 -36.5t37 -15.5t36.5 16t15.5 36t-15.5 36t-36.5 16z" />
    <glyph glyph-name="AE" unicode="&#xc6;" horiz-adv-x="1000" 
d="M395 552l-86 -298h150v298h-64zM459 0v104h-194l-31 -104h-231l240 720h724v-168h-292v-103h241v-168h-241v-113h306v-168h-522z" />
    <glyph glyph-name="Ccedilla" unicode="&#xc7;" horiz-adv-x="778" 
d="M743 445h-224q-11 118 -128 118q-133 0 -133 -210q0 -90 26 -136q34 -60 116 -60q105 0 121 122h227q-16 -139 -108.5 -218.5t-235.5 -79.5q-178 0 -280 102t-102 278q0 171 104 276q101 102 255 102q163 0 255.5 -76.5t106.5 -217.5zM251 -204l21 46q21 -6 42 -13
q25 -7 43 -7q25 0 39 10t14 25t-12.5 26t-32.5 11q-18 0 -38 -10l-25 24l55 92h58l-39 -64q15 6 60 2q29 -3 51.5 -24t22.5 -50q0 -9 -3 -18q-11 -37 -49 -59q-34 -19 -76 -19q-54 0 -131 28z" />
    <glyph glyph-name="Egrave" unicode="&#xc8;" horiz-adv-x="722" 
d="M677 0h-601v720h587v-168h-351v-103h297v-168h-297v-113h365v-168zM159 934h208l100 -148h-137z" />
    <glyph glyph-name="Eacute" unicode="&#xc9;" horiz-adv-x="722" 
d="M677 0h-601v720h587v-168h-351v-103h297v-168h-297v-113h365v-168zM261 786l100 148h209l-172 -148h-137z" />
    <glyph glyph-name="Ecircumflex" unicode="&#xca;" horiz-adv-x="722" 
d="M677 0h-601v720h587v-168h-351v-103h297v-168h-297v-113h365v-168zM161 786l121 148h164l122 -148h-148l-56 76l-56 -76h-147z" />
    <glyph glyph-name="Edieresis" unicode="&#xcb;" horiz-adv-x="722" 
d="M677 0h-601v720h587v-168h-351v-103h297v-168h-297v-113h365v-168zM394 792v130h169v-130h-169zM335 792h-169v130h169v-130z" />
    <glyph glyph-name="Igrave" unicode="&#xcc;" horiz-adv-x="389" 
d="M312 0h-236v720h236v-720zM-8 934h208l100 -148h-137z" />
    <glyph glyph-name="Iacute" unicode="&#xcd;" horiz-adv-x="389" 
d="M312 0h-236v720h236v-720zM94 786l100 148h209l-172 -148h-137z" />
    <glyph glyph-name="Icircumflex" unicode="&#xce;" horiz-adv-x="389" 
d="M312 0h-236v720h236v-720zM-6 786l121 148h164l122 -148h-148l-56 76l-56 -76h-147z" />
    <glyph glyph-name="Idieresis" unicode="&#xcf;" horiz-adv-x="389" 
d="M312 0h-236v720h236v-720zM227 792v130h169v-130h-169zM168 792h-169v130h169v-130z" />
    <glyph glyph-name="Eth" unicode="&#xd0;" horiz-adv-x="778" 
d="M301 552v-75h85v-198h-85v-111h50q170 0 170 194q0 110 -39 150t-136 40h-45zM65 477v243h316q179 0 275 -84q101 -88 101 -261q0 -375 -382 -375h-310v279h-65v198h65z" />
    <glyph glyph-name="Ntilde" unicode="&#xd1;" horiz-adv-x="833" 
d="M290 720l257 -393l-9 164v229h226v-720h-221l-257 392l9 -164v-228h-226v720h221zM535 925v0h80q-19 -133 -125 -133q-33 0 -80.5 18.5t-64.5 18.5q-29 0 -43 -43h-79q7 56 36 95q34 46 87 46q31 0 64 -12q30 -11 61 -23q10 -3 19 -3q40 0 45 36z" />
    <glyph glyph-name="Ograve" unicode="&#xd2;" horiz-adv-x="833" 
d="M414 563q-73 -1 -110 -66q-29 -52 -29 -133q0 -84 28 -138q36 -69 113 -69q142 0 142 207q0 83 -33 137q-39 63 -111 62zM416 739q182 0 285 -116q93 -104 93 -259q0 -179 -109 -283q-104 -100 -269 -100q-172 0 -273 101q-104 103 -104 284q0 169 104 271t273 102z
M214 934h208l100 -148h-137z" />
    <glyph glyph-name="Oacute" unicode="&#xd3;" horiz-adv-x="833" 
d="M414 563q-73 -1 -110 -66q-29 -52 -29 -133q0 -84 28 -138q36 -69 113 -69q142 0 142 207q0 83 -33 137q-39 63 -111 62zM416 739q182 0 285 -116q93 -104 93 -259q0 -179 -109 -283q-104 -100 -269 -100q-172 0 -273 101q-104 103 -104 284q0 169 104 271t273 102z
M316 786l100 148h209l-172 -148h-137z" />
    <glyph glyph-name="Ocircumflex" unicode="&#xd4;" horiz-adv-x="833" 
d="M414 563q-73 -1 -110 -66q-29 -52 -29 -133q0 -84 28 -138q36 -69 113 -69q142 0 142 207q0 83 -33 137q-39 63 -111 62zM416 739q182 0 285 -116q93 -104 93 -259q0 -179 -109 -283q-104 -100 -269 -100q-172 0 -273 101q-104 103 -104 284q0 169 104 271t273 102z
M216 786l121 148h164l122 -148h-148l-56 76l-56 -76h-147z" />
    <glyph glyph-name="Otilde" unicode="&#xd5;" horiz-adv-x="833" 
d="M414 563q-73 -1 -110 -66q-29 -52 -29 -133q0 -84 28 -138q36 -69 113 -69q142 0 142 207q0 83 -33 137q-39 63 -111 62zM416 739q182 0 285 -116q93 -104 93 -259q0 -179 -109 -283q-104 -100 -269 -100q-172 0 -273 101q-104 103 -104 284q0 169 104 271t273 102z
M535 925v0h80q-19 -133 -125 -133q-33 0 -80.5 18.5t-64.5 18.5q-29 0 -43 -43h-79q7 56 36 95q34 46 87 46q31 0 64 -12q30 -11 61 -23q10 -3 19 -3q40 0 45 36z" />
    <glyph glyph-name="Odieresis" unicode="&#xd6;" horiz-adv-x="833" 
d="M414 563q-73 -1 -110 -66q-29 -52 -29 -133q0 -84 28 -138q36 -69 113 -69q142 0 142 207q0 83 -33 137q-39 63 -111 62zM416 739q182 0 285 -116q93 -104 93 -259q0 -179 -109 -283q-104 -100 -269 -100q-172 0 -273 101q-104 103 -104 284q0 169 104 271t273 102z
M449 792v130h169v-130h-169zM390 792h-169v130h169v-130z" />
    <glyph glyph-name="multiply" unicode="&#xd7;" horiz-adv-x="660" 
d="M330 172l-170 -169l-81 80l170 170l-170 170l81 82l170 -170l169 170l82 -82l-170 -169l170 -170l-82 -81z" />
    <glyph glyph-name="Oslash" unicode="&#xd8;" horiz-adv-x="833" 
d="M290 254l205 282q-31 27 -81 27q-73 0 -110 -65q-29 -53 -29 -134q0 -72 15 -110zM546 456l-203 -277q32 -22 73 -22q68 0 106 59q36 55 36 148q0 58 -12 92zM750 733l-68 -92q49 -42 80.5 -119t31.5 -158q0 -180 -108 -284q-104 -99 -270 -99q-113 0 -188 41l-71 -98
l-73 48l72 99q-117 102 -117 295q0 169 104 271t273 102q106 0 193 -46l66 91z" />
    <glyph glyph-name="Ugrave" unicode="&#xd9;" horiz-adv-x="833" 
d="M70 314v406h236v-431q0 -63 19 -93q26 -39 92 -39q110 0 110 132v431h236v-407q0 -173 -83 -252.5t-263 -79.5q-174 0 -257 74q-90 79 -90 259zM214 934h208l100 -148h-137z" />
    <glyph glyph-name="Uacute" unicode="&#xda;" horiz-adv-x="833" 
d="M70 314v406h236v-431q0 -63 19 -93q26 -39 92 -39q110 0 110 132v431h236v-407q0 -173 -83 -252.5t-263 -79.5q-174 0 -257 74q-90 79 -90 259zM316 786l100 148h209l-172 -148h-137z" />
    <glyph glyph-name="Ucircumflex" unicode="&#xdb;" horiz-adv-x="833" 
d="M70 314v406h236v-431q0 -63 19 -93q26 -39 92 -39q110 0 110 132v431h236v-407q0 -173 -83 -252.5t-263 -79.5q-174 0 -257 74q-90 79 -90 259zM216 786l121 148h164l122 -148h-148l-56 76l-56 -76h-147z" />
    <glyph glyph-name="Udieresis" unicode="&#xdc;" horiz-adv-x="833" 
d="M70 314v406h236v-431q0 -63 19 -93q26 -39 92 -39q110 0 110 132v431h236v-407q0 -173 -83 -252.5t-263 -79.5q-174 0 -257 74q-90 79 -90 259zM449 792v130h169v-130h-169zM390 792h-169v130h169v-130z" />
    <glyph glyph-name="Yacute" unicode="&#xdd;" horiz-adv-x="778" 
d="M507 266v-266h-236v262l-268 458h264l124 -244l124 244h260zM289 786l100 148h209l-172 -148h-137z" />
    <glyph glyph-name="Thorn" unicode="&#xde;" horiz-adv-x="722" 
d="M293 292h98q95 0 95 84q0 76 -126 76h-67v-160zM293 0h-236v720h236v-100h111q152 0 231 -66q76 -63 76 -177q0 -253 -299 -253h-119v-124z" />
    <glyph glyph-name="germandbls" unicode="&#xdf;" 
d="M311 338v114q79 -2 79 72q0 75 -68 75q-45 0 -58 -32q-8 -18 -8 -71v-496h-208v489q0 250 276 250q117 0 187 -47q74 -50 74 -140q0 -100 -89 -142q71 -27 101 -72.5t30 -121.5q0 -109 -69 -172q-65 -59 -163 -59q-42 0 -86 9v129q17 -3 30 -3q80 0 80 106
q0 115 -108 112z" />
    <glyph glyph-name="agrave" unicode="&#xe0;" 
d="M634 0h-215l-10 56q-76 -71 -197 -71q-80 0 -131 38q-56 43 -56 120q0 103 97 143q40 17 179 35q97 13 97 50q0 43 -68 43q-67 0 -73 -51h-200q0 176 286 176q169 0 225 -62q38 -42 38 -155v-245q0 -26 4 -36q5 -16 24 -31v-10zM306 103q101 0 92 129q-23 -11 -70 -21
t-62 -19q-26 -15 -26 -45q0 -44 66 -44zM131 738h208l100 -148h-137z" />
    <glyph glyph-name="aacute" unicode="&#xe1;" 
d="M634 0h-215l-10 56q-76 -71 -197 -71q-80 0 -131 38q-56 43 -56 120q0 103 97 143q40 17 179 35q97 13 97 50q0 43 -68 43q-67 0 -73 -51h-200q0 176 286 176q169 0 225 -62q38 -42 38 -155v-245q0 -26 4 -36q5 -16 24 -31v-10zM306 103q101 0 92 129q-23 -11 -70 -21
t-62 -19q-26 -15 -26 -45q0 -44 66 -44zM233 590l100 148h209l-172 -148h-137z" />
    <glyph glyph-name="acircumflex" unicode="&#xe2;" 
d="M634 0h-215l-10 56q-76 -71 -197 -71q-80 0 -131 38q-56 43 -56 120q0 103 97 143q40 17 179 35q97 13 97 50q0 43 -68 43q-67 0 -73 -51h-200q0 176 286 176q169 0 225 -62q38 -42 38 -155v-245q0 -26 4 -36q5 -16 24 -31v-10zM306 103q101 0 92 129q-23 -11 -70 -21
t-62 -19q-26 -15 -26 -45q0 -44 66 -44zM133 590l121 148h164l122 -148h-148l-56 76l-56 -76h-147z" />
    <glyph glyph-name="atilde" unicode="&#xe3;" 
d="M634 0h-215l-10 56q-76 -71 -197 -71q-80 0 -131 38q-56 43 -56 120q0 103 97 143q40 17 179 35q97 13 97 50q0 43 -68 43q-67 0 -73 -51h-200q0 176 286 176q169 0 225 -62q38 -42 38 -155v-245q0 -26 4 -36q5 -16 24 -31v-10zM306 103q101 0 92 129q-23 -11 -70 -21
t-62 -19q-26 -15 -26 -45q0 -44 66 -44zM452 729v0h80q-19 -133 -125 -133q-33 0 -80.5 18.5t-64.5 18.5q-29 0 -43 -43h-79q7 56 36 95q34 46 87 46q31 0 64 -12q30 -11 61 -23q10 -3 19 -3q40 0 45 36z" />
    <glyph glyph-name="adieresis" unicode="&#xe4;" 
d="M634 0h-215l-10 56q-76 -71 -197 -71q-80 0 -131 38q-56 43 -56 120q0 103 97 143q40 17 179 35q97 13 97 50q0 43 -68 43q-67 0 -73 -51h-200q0 176 286 176q169 0 225 -62q38 -42 38 -155v-245q0 -26 4 -36q5 -16 24 -31v-10zM306 103q101 0 92 129q-23 -11 -70 -21
t-62 -19q-26 -15 -26 -45q0 -44 66 -44zM366 596v130h169v-130h-169zM307 596h-169v130h169v-130z" />
    <glyph glyph-name="aring" unicode="&#xe5;" 
d="M634 0h-215l-10 56q-76 -71 -197 -71q-80 0 -131 38q-56 43 -56 120q0 103 97 143q40 17 179 35q97 13 97 50q0 43 -68 43q-67 0 -73 -51h-200q0 176 286 176q169 0 225 -62q38 -42 38 -155v-245q0 -26 4 -36q5 -16 24 -31v-10zM306 103q101 0 92 129q-23 -11 -70 -21
t-62 -19q-26 -15 -26 -45q0 -44 66 -44zM334 593q-46 0 -79.5 33t-33.5 79t33.5 79t79.5 33t79 -33t33 -79t-33 -79t-79 -33zM334 757q-21 0 -37 -15.5t-16 -36.5t16 -36.5t37 -15.5t36.5 16t15.5 36t-15.5 36t-36.5 16z" />
    <glyph glyph-name="ae" unicode="&#xe6;" horiz-adv-x="1000" 
d="M314 206q-68 -14 -68 -54q0 -23 17 -36t41 -13q111 0 102 131q-28 -14 -92 -28zM578 321h180q-1 39 -23 64q-25 27 -66 27q-82 0 -91 -91zM284 317l51 6q73 9 73 45q0 28 -22 37q-16 7 -56 7q-64 0 -70 -50h-195q4 86 81 134q69 43 173 43q131 0 197 -57q63 57 168 57
q136 0 211 -101q69 -92 61 -223h-377q-2 -45 21.5 -74t69.5 -29q65 0 82 44h189q-29 -93 -102 -134q-67 -37 -183 -37t-173 72q-98 -72 -226 -72q-219 0 -219 161q0 90 81 132q51 26 165 39z" />
    <glyph glyph-name="ccedilla" unicode="&#xe7;" 
d="M618 324h-211q-1 33 -22 54t-54 21q-91 0 -91 -143q0 -131 91 -131q70 0 81 78h210q-13 -112 -98 -169q-75 -49 -193 -49q-131 0 -213 70q-86 73 -86 202q0 131 85 208q81 74 214 74q115 0 190 -49q86 -57 97 -166zM195 -204l21 46q21 -6 42 -13q25 -7 43 -7q25 0 39 10
t14 25t-12.5 26t-32.5 11q-18 0 -38 -10l-25 24l55 92h58l-39 -64q15 6 60 2q29 -3 51.5 -24t22.5 -50q0 -9 -3 -18q-11 -37 -49 -59q-34 -19 -76 -19q-54 0 -131 28z" />
    <glyph glyph-name="egrave" unicode="&#xe8;" 
d="M239 321h189q0 36 -27.5 63.5t-64.5 27.5q-97 0 -97 -91zM636 215h-397q0 -45 30 -74t73 -29q56 0 78 46h199q-25 -90 -113 -135q-74 -38 -177 -38q-131 0 -212 70q-86 74 -86 202q0 127 86 206q83 76 211 76q144 0 227 -90t81 -234zM131 738h208l100 -148h-137z" />
    <glyph glyph-name="eacute" unicode="&#xe9;" 
d="M239 321h189q0 36 -27.5 63.5t-64.5 27.5q-97 0 -97 -91zM636 215h-397q0 -45 30 -74t73 -29q56 0 78 46h199q-25 -90 -113 -135q-74 -38 -177 -38q-131 0 -212 70q-86 74 -86 202q0 127 86 206q83 76 211 76q144 0 227 -90t81 -234zM233 590l100 148h209l-172 -148h-137
z" />
    <glyph glyph-name="ecircumflex" unicode="&#xea;" 
d="M239 321h189q0 36 -27.5 63.5t-64.5 27.5q-97 0 -97 -91zM636 215h-397q0 -45 30 -74t73 -29q56 0 78 46h199q-25 -90 -113 -135q-74 -38 -177 -38q-131 0 -212 70q-86 74 -86 202q0 127 86 206q83 76 211 76q144 0 227 -90t81 -234zM133 590l121 148h164l122 -148h-148
l-56 76l-56 -76h-147z" />
    <glyph glyph-name="edieresis" unicode="&#xeb;" 
d="M239 321h189q0 36 -27.5 63.5t-64.5 27.5q-97 0 -97 -91zM636 215h-397q0 -45 30 -74t73 -29q56 0 78 46h199q-25 -90 -113 -135q-74 -38 -177 -38q-131 0 -212 70q-86 74 -86 202q0 127 86 206q83 76 211 76q144 0 227 -90t81 -234zM366 596v130h169v-130h-169zM307 596
h-169v130h169v-130z" />
    <glyph glyph-name="igrave" unicode="&#xec;" horiz-adv-x="333" 
d="M270 0h-208v524h208v-524zM-36 738h208l100 -148h-137z" />
    <glyph glyph-name="iacute" unicode="&#xed;" horiz-adv-x="333" 
d="M270 0h-208v524h208v-524zM66 590l100 148h209l-172 -148h-137z" />
    <glyph glyph-name="icircumflex" unicode="&#xee;" horiz-adv-x="333" 
d="M270 0h-208v524h208v-524zM-34 590l121 148h164l122 -148h-148l-56 76l-56 -76h-147z" />
    <glyph glyph-name="idieresis" unicode="&#xef;" horiz-adv-x="333" 
d="M270 0h-208v524h208v-524zM199 596v130h169v-130h-169zM140 596h-169v130h169v-130z" />
    <glyph glyph-name="eth" unicode="&#xf0;" 
d="M335 399q-49 -1 -73 -45q-19 -34 -19 -87q0 -142 90 -142t90 142q0 59 -24 96t-64 36zM366 689l100 45l35 -37l-103 -46q46 -42 84 -91q96 -124 102 -135q47 -76 47 -158q0 -138 -86 -213q-79 -69 -212 -69q-131 0 -212 68q-86 73 -86 203q0 132 88 214q78 72 177 72
q-11 19 -34 50l-103 -44l-33 35l101 45q-22 29 -62 59l123 52q26 -12 74 -50z" />
    <glyph glyph-name="ntilde" unicode="&#xf1;" 
d="M48 0v524h190v-82q72 97 177 97q203 0 203 -225v-314h-208v277q0 98 -73 98q-81 0 -81 -108v-267h-208zM452 729v0h80q-19 -133 -125 -133q-33 0 -80.5 18.5t-64.5 18.5q-29 0 -43 -43h-79q7 56 36 95q34 46 87 46q31 0 64 -12q30 -11 61 -23q10 -3 19 -3q40 0 45 36z
" />
    <glyph glyph-name="ograve" unicode="&#xf2;" 
d="M335 399q-49 -1 -73 -45q-19 -34 -19 -87q0 -142 90 -142t90 142q0 59 -24 96t-64 36zM35 256q0 134 82 210q80 73 215 73q138 0 218.5 -74.5t80.5 -197.5q0 -138 -86 -213q-79 -69 -212 -69q-131 0 -212 68q-86 73 -86 203zM131 738h208l100 -148h-137z" />
    <glyph glyph-name="oacute" unicode="&#xf3;" 
d="M335 399q-49 -1 -73 -45q-19 -34 -19 -87q0 -142 90 -142t90 142q0 59 -24 96t-64 36zM35 256q0 134 82 210q80 73 215 73q138 0 218.5 -74.5t80.5 -197.5q0 -138 -86 -213q-79 -69 -212 -69q-131 0 -212 68q-86 73 -86 203zM233 590l100 148h209l-172 -148h-137z" />
    <glyph glyph-name="ocircumflex" unicode="&#xf4;" 
d="M335 399q-49 -1 -73 -45q-19 -34 -19 -87q0 -142 90 -142t90 142q0 59 -24 96t-64 36zM35 256q0 134 82 210q80 73 215 73q138 0 218.5 -74.5t80.5 -197.5q0 -138 -86 -213q-79 -69 -212 -69q-131 0 -212 68q-86 73 -86 203zM133 590l121 148h164l122 -148h-148l-56 76
l-56 -76h-147z" />
    <glyph glyph-name="otilde" unicode="&#xf5;" 
d="M335 399q-49 -1 -73 -45q-19 -34 -19 -87q0 -142 90 -142t90 142q0 59 -24 96t-64 36zM35 256q0 134 82 210q80 73 215 73q138 0 218.5 -74.5t80.5 -197.5q0 -138 -86 -213q-79 -69 -212 -69q-131 0 -212 68q-86 73 -86 203zM452 729v0h80q-19 -133 -125 -133
q-33 0 -80.5 18.5t-64.5 18.5q-29 0 -43 -43h-79q7 56 36 95q34 46 87 46q31 0 64 -12q30 -11 61 -23q10 -3 19 -3q40 0 45 36z" />
    <glyph glyph-name="odieresis" unicode="&#xf6;" 
d="M335 399q-49 -1 -73 -45q-19 -34 -19 -87q0 -142 90 -142t90 142q0 59 -24 96t-64 36zM35 256q0 134 82 210q80 73 215 73q138 0 218.5 -74.5t80.5 -197.5q0 -138 -86 -213q-79 -69 -212 -69q-131 0 -212 68q-86 73 -86 203zM366 596v130h169v-130h-169zM307 596h-169
v130h169v-130z" />
    <glyph glyph-name="divide" unicode="&#xf7;" horiz-adv-x="660" 
d="M582 198h-504v116h504v-116zM388 7h-116v116h116v-116zM388 389h-116v116h116v-116z" />
    <glyph glyph-name="oslash" unicode="&#xf8;" 
d="M254 187l125 198q-18 14 -46 14q-48 0 -71 -45q-19 -35 -19 -87q0 -44 11 -80zM413 328l-120 -191q20 -12 40 -12q90 0 90 142q0 25 -10 61zM553 548l-37 -58q115 -71 115 -223q0 -138 -86 -213q-80 -69 -212 -69q-70 0 -124 20l-49 -77l-51 28l47 74q-121 67 -121 226
q0 134 82 210q80 73 215 73q70 0 130 -22l41 64z" />
    <glyph glyph-name="ugrave" unicode="&#xf9;" 
d="M618 524v-524h-193v77q-38 -53 -82 -73q-40 -19 -107 -19q-88 0 -138 55t-50 165v319h208v-283q0 -52 18 -73.5t57 -21.5q79 0 79 126v252h208zM131 738h208l100 -148h-137z" />
    <glyph glyph-name="uacute" unicode="&#xfa;" 
d="M618 524v-524h-193v77q-38 -53 -82 -73q-40 -19 -107 -19q-88 0 -138 55t-50 165v319h208v-283q0 -52 18 -73.5t57 -21.5q79 0 79 126v252h208zM233 590l100 148h209l-172 -148h-137z" />
    <glyph glyph-name="ucircumflex" unicode="&#xfb;" 
d="M618 524v-524h-193v77q-38 -53 -82 -73q-40 -19 -107 -19q-88 0 -138 55t-50 165v319h208v-283q0 -52 18 -73.5t57 -21.5q79 0 79 126v252h208zM133 590l121 148h164l122 -148h-148l-56 76l-56 -76h-147z" />
    <glyph glyph-name="udieresis" unicode="&#xfc;" 
d="M618 524v-524h-193v77q-38 -53 -82 -73q-40 -19 -107 -19q-88 0 -138 55t-50 165v319h208v-283q0 -52 18 -73.5t57 -21.5q79 0 79 126v252h208zM366 596v130h169v-130h-169zM307 596h-169v130h169v-130z" />
    <glyph glyph-name="yacute" unicode="&#xfd;" horiz-adv-x="611" 
d="M215 524l92 -323l91 323h200l-168 -489q-46 -133 -82 -167q-50 -46 -180 -46q-22 0 -54.5 2t-37.5 2v145q8 0 22 -1h21q68 0 68 37q0 16 -9 40l-172 477h209zM205 590l100 148h209l-172 -148h-137z" />
    <glyph glyph-name="thorn" unicode="&#xfe;" 
d="M44 739h187v-293h2q20 45 70 71q44 22 94 22q113 0 176 -82q58 -75 58 -191q0 -143 -79 -218q-66 -63 -166 -63q-81 0 -134 67v-230h-208v917zM333 144q41 0 65.5 32.5t24.5 86.5q0 122 -91 122q-37 0 -60.5 -32.5t-23.5 -85.5q0 -56 22.5 -89.5t62.5 -33.5z" />
    <glyph glyph-name="ydieresis" unicode="&#xff;" horiz-adv-x="611" 
d="M215 524l92 -323l91 323h200l-168 -489q-46 -133 -82 -167q-50 -46 -180 -46q-22 0 -54.5 2t-37.5 2v145q8 0 22 -1h21q68 0 68 37q0 16 -9 40l-172 477h209zM338 596v130h169v-130h-169zM279 596h-169v130h169v-130z" />
    <glyph glyph-name="dotlessi" unicode="&#x131;" horiz-adv-x="333" 
d="M270 0h-208v524h208v-524z" />
    <glyph glyph-name="Lslash" unicode="&#x141;" 
d="M627 0h-551v315l-96 -50v135l96 50v270h236v-200l96 50v-135l-96 -50v-217h315v-168z" />
    <glyph glyph-name="lslash" unicode="&#x142;" horiz-adv-x="333" 
d="M270 370v-370h-208v290l-63 -60v130l63 60v300h208v-220l63 60v-130z" />
    <glyph glyph-name="OE" unicode="&#x152;" horiz-adv-x="1000" 
d="M487 0v64q-61 -83 -182 -83q-141 0 -218 96q-81 100 -81 291q0 178 93 280q83 91 209 91t180 -85v66h480v-168h-292v-103h241v-168h-242v-113h306v-168h-494zM349 563q-123 0 -123 -222q0 -184 119 -184q123 0 123 219q0 187 -119 187z" />
    <glyph glyph-name="oe" unicode="&#x153;" horiz-adv-x="1000" 
d="M581 321h210q-1 41 -29 66t-74 25q-102 0 -107 -91zM960 215h-379q0 -46 23 -73q25 -30 70 -30q74 0 82 44h189q-22 -87 -104 -133q-69 -38 -160 -38q-87 0 -182 72q-59 -72 -189 -72q-129 0 -202 74t-73 198q0 139 83 215q75 67 193 67q109 0 190 -57q89 57 187 57
q136 0 211 -101q69 -92 61 -223zM332 399q-89 0 -89 -142q0 -61 15 -90q20 -42 75 -42q84 0 84 136q0 138 -85 138z" />
    <glyph glyph-name="Scaron" unicode="&#x160;" horiz-adv-x="722" 
d="M669 511h-224q-5 34 -34 49q-25 13 -61 13q-75 0 -75 -41t107 -68q155 -40 200 -64q107 -58 107 -171q0 -121 -94 -187q-89 -61 -243 -61q-139 0 -229 72q-86 68 -90 169h226q7 -37 39 -57q29 -18 67 -18q98 0 98 53q0 41 -107 67q-153 38 -200 64q-107 59 -107 178
q0 111 89 172q83 58 223 58q142 0 223 -67q71 -59 85 -161zM420 934h148l-122 -148h-164l-121 148h147l56 -75z" />
    <glyph glyph-name="scaron" unicode="&#x161;" horiz-adv-x="611" 
d="M33 163h198q0 -30 21 -47t52 -17q66 0 66 47q0 32 -83 49q-121 26 -155 42q-83 41 -83 129q0 91 83 137q66 36 165 36q246 0 260 -165h-189q-6 51 -62 51q-59 0 -59 -37q0 -27 86 -46q120 -26 159 -46q86 -43 86 -128t-69 -132q-73 -51 -213 -51q-106 0 -172 36
q-83 45 -91 142zM364 738h148l-122 -148h-164l-121 148h147l56 -75z" />
    <glyph glyph-name="Ydieresis" unicode="&#x178;" horiz-adv-x="778" 
d="M507 266v-266h-236v262l-268 458h264l124 -244l124 244h260zM422 792v130h169v-130h-169zM363 792h-169v130h169v-130z" />
    <glyph glyph-name="Zcaron" unicode="&#x17d;" horiz-adv-x="722" 
d="M685 0h-649v171l345 381h-331v168h621v-167l-350 -385h364v-168zM420 934h148l-122 -148h-164l-121 148h147l56 -75z" />
    <glyph glyph-name="zcaron" unicode="&#x17e;" horiz-adv-x="556" 
d="M530 0h-504v139l237 233h-216v152h472v-145l-229 -227h240v-152zM337 738h148l-122 -148h-164l-121 148h147l56 -75z" />
    <glyph glyph-name="florin" unicode="&#x192;" 
d="M622 730l-21 -127q-38 10 -57 10q-31 0 -43 -10.5t-18 -41.5l-18 -95h110v-116h-129l-44 -254q-15 -88 -28 -125q-23 -66 -68 -105q-31 -27 -70 -40q-29 -10 -69 -10q-26 0 -119 19l22 127q5 -3 46 -13q69 -3 83 79l55 322h-107v116h126q22 121 39 161q35 82 115 110
q28 10 80 10q34 0 115 -17z" />
    <glyph glyph-name="circumflex" unicode="&#x2c6;" horiz-adv-x="333" 
d="M-34 590l121 148h164l122 -148h-148l-56 76l-56 -76h-147z" />
    <glyph glyph-name="caron" unicode="&#x2c7;" horiz-adv-x="333" 
d="M225 738h148l-122 -148h-164l-121 148h147l56 -75z" />
    <glyph glyph-name="breve" unicode="&#x2d8;" horiz-adv-x="333" 
d="M-12 743h79q8 -62 107 -62q89 0 99 62h78q-3 -74 -57 -115q-50 -38 -126 -38q-169 0 -180 153z" />
    <glyph glyph-name="dotaccent" unicode="&#x2d9;" horiz-adv-x="333" 
d="M251 596h-169v130h169v-130z" />
    <glyph glyph-name="ring" unicode="&#x2da;" horiz-adv-x="333" 
d="M167 593q-46 0 -79.5 33t-33.5 79t33.5 79t79.5 33t79 -33t33 -79t-33 -79t-79 -33zM167 757q-21 0 -37 -15.5t-16 -36.5t16 -36.5t37 -15.5t36.5 16t15.5 36t-15.5 36t-36.5 16z" />
    <glyph glyph-name="ogonek" unicode="&#x2db;" horiz-adv-x="333" 
d="M156 0h83v-2q-56 -26 -56 -65q0 -19 14 -34t33 -15q14 0 48 12v-86q-43 -15 -89 -15q-49 0 -81 24q-35 27 -35 75t83 106z" />
    <glyph glyph-name="tilde" unicode="&#x2dc;" horiz-adv-x="333" 
d="M285 729v0h80q-19 -133 -125 -133q-33 0 -80.5 18.5t-64.5 18.5q-29 0 -43 -43h-79q7 56 36 95q34 46 87 46q31 0 64 -12q30 -11 61 -23q10 -3 19 -3q40 0 45 36z" />
    <glyph glyph-name="hungarumlaut" unicode="&#x2dd;" horiz-adv-x="333" 
d="M66 590l100 148h209l-172 -148h-137zM318 590l100 148h209l-172 -148h-137z" />
    <glyph glyph-name="endash" unicode="&#x2013;" horiz-adv-x="500" 
d="M500 187h-500v138h500v-138z" />
    <glyph glyph-name="emdash" unicode="&#x2014;" horiz-adv-x="1000" 
d="M1000 187h-1000v138h1000v-138z" />
    <glyph glyph-name="quoteleft" unicode="&#x2018;" horiz-adv-x="278" 
d="M236 739v0v-81q-80 -11 -80 -97h80v-183h-183v158q0 90 54 147.5t129 55.5z" />
    <glyph glyph-name="quoteright" unicode="&#x2019;" horiz-adv-x="278" 
d="M42 359v0v81q80 14 80 97h-80v183h183v-158q0 -89 -54 -146.5t-129 -56.5z" />
    <glyph glyph-name="quotesinglbase" unicode="&#x201a;" horiz-adv-x="278" 
d="M42 -178v0v81q80 14 80 97h-80v183h183v-158q0 -90 -54 -147.5t-129 -55.5z" />
    <glyph glyph-name="quotedblleft" unicode="&#x201c;" horiz-adv-x="500" 
d="M471 739v0v-81q-80 -11 -80 -97h80v-183h-183v158q0 90 54 147.5t129 55.5zM224 739v0v-81q-80 -11 -80 -97h80v-183h-183v158q0 90 54 147.5t129 55.5z" />
    <glyph glyph-name="quotedblright" unicode="&#x201d;" horiz-adv-x="500" 
d="M276 359v0v81q80 14 80 97h-80v183h183v-158q0 -89 -54 -146.5t-129 -56.5zM29 359v0v81q80 14 80 97h-80v183h183v-158q0 -89 -54 -146.5t-129 -56.5z" />
    <glyph glyph-name="quotedblbase" unicode="&#x201e;" horiz-adv-x="500" 
d="M276 -178v0v81q80 14 80 97h-80v183h183v-158q0 -90 -54 -147.5t-129 -55.5zM29 -178v0v81q80 14 80 97h-80v183h183v-158q0 -90 -54 -147.5t-129 -55.5z" />
    <glyph glyph-name="dagger" unicode="&#x2020;" 
d="M232 514v206h202v-206h150v-158h-150v-534h-202v534h-150v158h150z" />
    <glyph glyph-name="daggerdbl" unicode="&#x2021;" 
d="M82 540h150v180h192v-180h160v-158h-160v-218h160v-158h-160v-184h-192v184h-150v158h150v218h-150v158z" />
    <glyph glyph-name="bullet" unicode="&#x2022;" horiz-adv-x="500" 
d="M418 361q0 -70 -49.5 -119.5t-119.5 -49.5t-119 49.5t-49 119.5t49 119t119 49t119.5 -49t49.5 -119z" />
    <glyph glyph-name="ellipsis" unicode="&#x2026;" horiz-adv-x="1000" 
d="M273 0h-212v206h212v-206zM939 0h-212v206h212v-206zM606 0h-212v206h212v-206z" />
    <glyph glyph-name="perthousand" unicode="&#x2030;" horiz-adv-x="1000" 
d="M469 182q-18 0 -33 -14t-15 -33q0 -18 15 -32.5t33 -14.5q19 0 33 14.5t14 32.5t-14 32.5t-33 14.5zM840 302q68 0 117.5 -49.5t49.5 -117.5q0 -70 -49.5 -118.5t-120.5 -48.5q-67 0 -116 50t-49 117q0 68 50.5 117.5t117.5 49.5zM840 182q-18 0 -33 -14t-15 -33
q0 -18 15 -32.5t33 -14.5q19 0 33 14.5t14 32.5t-14 32.5t-33 14.5zM161 751q68 0 117.5 -49.5t49.5 -117.5q0 -70 -49.5 -118.5t-120.5 -48.5q-67 0 -116 50t-49 117q0 68 50.5 117.5t117.5 49.5zM481 738h85l-420 -758h-85zM161 631q-18 0 -33 -14t-15 -33q0 -18 15 -32.5
t33 -14.5q19 0 33 14.5t14 32.5t-14 32.5t-33 14.5zM469 302q68 0 117.5 -49.5t49.5 -117.5q0 -70 -49.5 -118.5t-120.5 -48.5q-67 0 -116 50t-49 117q0 68 50.5 117.5t117.5 49.5z" />
    <glyph glyph-name="guilsinglleft" unicode="&#x2039;" horiz-adv-x="333" 
d="M258 64l-183 118v146l183 120v-131l-101 -65l101 -59v-129z" />
    <glyph glyph-name="guilsinglright" unicode="&#x203a;" horiz-adv-x="333" 
d="M75 448l183 -118v-146l-183 -120v131l101 65l-101 59v129z" />
    <glyph glyph-name="fraction" unicode="&#x2044;" horiz-adv-x="167" 
d="M-69 -15h-98l403 730h98z" />
    <glyph glyph-name="trademark" unicode="&#x2122;" horiz-adv-x="950" 
d="M886 720v-404h-88v326h-2l-117 -326h-52l-117 326h-2v-326h-88v404h142l91 -239l91 239h142zM371 720v-78h-123v-326h-97v326h-123v78h343z" />
    <glyph glyph-name="fi" unicode="&#xf001;" 
d="M414 524h208v-524h-208v524zM622 739v-148h-208v148h208zM78 404h-69v120h70q0 130 53 177q43 38 152 38h89v-131q-57 0 -71 -10q-19 -15 -16 -74h87v-120h-87v-404h-208v404z" />
    <glyph glyph-name="fl" unicode="&#xf002;" 
d="M414 720h208v-720h-208v720zM286 524h87v-120h-87v-404h-208v404h-69v120h70q0 130 53 177q43 38 152 38h89v-131q-57 0 -71 -10q-19 -15 -16 -74z" />
    <glyph glyph-name="glyph231" horiz-adv-x="333" 
 />
  </font>
</defs>
</svg>
